PathFileType	4	(X/Y/Z)	46_2_97_p1_0-280_filt_butterworth.trc
DataRate	CameraRate	NumFrames	NumMarkers	Units	OrigDataRate	OrigDataStartFrame	OrigNumFrames
59.0	59.0	4	27	m	59.0	0	280
Frame#	Time	RHip			RKnee			RAnkle			RBigToe			RSmallToe			RHeel			LHip			LKnee			LAnkle			LBigToe			LSmallToe			LHeel			Neck			Head			Nose			RShoulder			RElbow			RWrist			RThumb			RIndex			RPinky			LShoulder			LElbow			LWrist			LThumb			LIndex			LPinky			
		X1	Y1	Z1	X2	Y2	Z2	X3	Y3	Z3	X4	Y4	Z4	X5	Y5	Z5	X6	Y6	Z6	X7	Y7	Z7	X8	Y8	Z8	X9	Y9	Z9	X10	Y10	Z10	X11	Y11	Z11	X12	Y12	Z12	X13	Y13	Z13	X14	Y14	Z14	X15	Y15	Z15	X16	Y16	Z16	X17	Y17	Z17	X18	Y18	Z18	X19	Y19	Z19	X20	Y20	Z20	X21	Y21	Z21	X22	Y22	Z22	X23	Y23	Z23	X24	Y24	Z24	X25	Y25	Z25	X26	Y26	Z26	X27	Y27	Z27	
0	0.0	0.3499564393155526	0.3724854011418936	0.6387912676883896	0.3478723163811101	0.42717216393513	1.0940105158449496	0.3424149691040326	0.49395324301057647	1.510948613079234	0.3564627419698887	0.36425870104252717	1.5311907061722216	0.4054523434202211	0.38808614641401484	1.5304018873548606	0.3133943945818631	0.6059698165459023	1.6119297965848487	0.14489781372349642	0.3548153559767598	0.6565102631444842	0.13794243959341912	0.4379832018479363	1.0903118378801668	0.13414796741553306	0.519123717361344	1.5380060651206557	0.19383156172948046	0.3139384873910184	1.5016531748786137	0.1382030505137068	0.3575178506436002	1.5195215497380992	0.11836859244170708	0.5893466494366975	1.5852719865311218	0.2583504887824091	0.34401245299717365	0.13698875204380406	0.2666830313050334	0.27636027553198006	-0.10419000447922712	0.26469648986557653	0.25087750983739915	0.020593211179708082	0.41395827790112905	0.37559585654703725	0.22598226043509773	0.4878592946238779	0.3214983644055787	0.4679035403092306	0.3594846239966709	0.20079211344016068	0.6391249173254605	0.25830566397072	0.18745951864906923	0.727167095808779	0.2599384076991311	0.18887520250785836	0.743889390876749	0.2708259240890898	0.20167055580153914	0.7460902607376132	0.1192531930752476	0.3321332035418803	0.22186806657194555	0.07125684855807489	0.2684170698950429	0.46672356798217307	0.19009230808974253	0.20940268620205033	0.6497072520227786	0.2978850018101833	0.14443182667412877	0.6456376975593574	0.3056273965001095	0.15632857658808777	0.7212737904037604	0.25921497359115353	0.17432378052228664	0.7426840350445753
1	0.0169491525423728	0.35137215987898635	0.3775138153211062	0.639129409957486	0.3475016783820757	0.4256767722140187	1.0907921630439874	0.3433648072109878	0.49916438040541794	1.5133020861758057	0.35478601415531996	0.3708901026682452	1.5379574997855765	0.40339631983103397	0.3881261551797878	1.5332452525981315	0.3126316478967514	0.6008762382358636	1.6082841714731173	0.1450426768262734	0.35491981053700705	0.6575047375411303	0.13768534406545263	0.440185122237548	1.0948899493864552	0.13405939216574267	0.5193486521568381	1.5371005046417803	0.19320719789046198	0.3049612966954358	1.4977072596685377	0.1396531910865041	0.349075843092923	1.5149183473489405	0.12443859968184603	0.5803268469831383	1.5799576922005834	0.2584784913668967	0.3441237092741766	0.1370133098682809	0.2667484170152782	0.27645917313326857	-0.1040769146383649	0.26465522112627704	0.25087745358208663	0.019303036846904608	0.41431987572558593	0.3760451635755758	0.23028030165059088	0.48535055473735395	0.3292048294372489	0.4702082273654759	0.36299509619853526	0.218383510844718	0.6421123038863008	0.25649958909392334	0.18707323113445568	0.7232956145848415	0.2567059389996832	0.18840052051975362	0.7414362521238436	0.2718080725584915	0.2142226031434582	0.7500602112387994	0.12002247192289521	0.33819919449305835	0.22174385957867931	0.07264859123788887	0.2652111872732795	0.4677258940238397	0.1898567517402059	0.20911203816417273	0.6487377579792972	0.2950360908139421	0.14914135175902787	0.6472139289626834	0.30042613753391456	0.1601764999497168	0.722951869054643	0.25868531872662426	0.17450077334843667	0.7436609002049545
2	0.0338983050847457	0.3525664510402642	0.3821916543126951	0.6399475066194573	0.3472475111025367	0.42467455576017543	1.0888049704727383	0.34393546329757224	0.5042287515257993	1.515499421600972	0.3530194203267599	0.3765565989752525	1.5431763035783126	0.40214884780383214	0.38815295502834063	1.5349529741910413	0.3122461007252604	0.5970830902213725	1.6046741026874087	0.1451401315841367	0.35510435708812915	0.6570961528628338	0.13771475027014807	0.44138007860252576	1.0987251956321376	0.134013572361911	0.5194208405916338	1.5367348245572285	0.19292152418890132	0.2996736361353769	1.495836235958954	0.1405534386901895	0.3440380167078481	1.512060999935553	0.12852838374712486	0.575339083210951	1.5769315047694867	0.2586533247534587	0.34416858738568173	0.13702464238301865	0.2667922318208752	0.2765033657069214	-0.10398755262024613	0.26460524767484905	0.2508994229374329	0.01805819389884954	0.41453275596435346	0.37633662920536004	0.2328368027533901	0.48370361563046727	0.3337629747633036	0.47251013170047956	0.36547636778835896	0.23152662448347835	0.6449887870877876	0.2552535688353171	0.1868996424733352	0.720580513978998	0.25394805605939197	0.19010189968196128	0.7409617991063873	0.2717378338106449	0.22551217353572947	0.753357160111537	0.12024986495330753	0.3397143168447972	0.22186554309557222	0.07212805360717402	0.2660871302826195	0.4683244883167884	0.18990975390240097	0.2102218458542228	0.6486977203802794	0.29186826665583054	0.15698334158916644	0.6497392033188807	0.2960183125410207	0.16868265355498682	0.7260080914709381	0.25862690018596146	0.17597924697213094	0.7444926154812845
3	0.0508474576271186	0.35331290957226347	0.38543832865726485	0.6411482759440654	0.34718664150868017	0.4245589227240832	1.0882472895860935	0.3434907668111432	0.5078888314013964	1.517292375417142	0.35169449000685227	0.37983333508722694	1.5459134950374602	0.4017769244407389	0.38820822469844324	1.535452910130479	0.31209513005511214	0.5940825801479825	1.601140315379824	0.1451890662878503	0.3554200774553863	0.6556665181285494	0.1378297603199384	0.44127553500022515	1.1010459689142063	0.13408080676608308	0.5192610043546668	1.5370945298830139	0.1930653922047906	0.2980834495714379	1.4967861491391616	0.1408634654651304	0.34263699327876845	1.5111300105755614	0.13018112621669536	0.5743979516286565	1.5762633398491832	0.25866109377933655	0.344153740568483	0.13703383604419134	0.2668275306757406	0.27650651227014966	-0.10392580291040643	0.2645476370023748	0.2509535272945025	0.01725946648992586	0.41457971915041086	0.3764673184425045	0.2335353056909409	0.48277609092334894	0.3361416761312891	0.47496037463684176	0.36684735775891814	0.239451793195091	0.6472231350690453	0.25475709267208746	0.18683939921065487	0.7193632411810472	0.2524505139818066	0.19357225139730438	0.7420243574934954	0.2708095788753748	0.23458763789426618	0.7554582743022167	0.1199562625671886	0.33701213238994343	0.22198601190864375	0.06971846301513573	0.27091930057884567	0.4686661385752605	0.1903909955610551	0.21351046731617424	0.6499793588914702	0.28955965512733095	0.1678683587699136	0.6531529016237484	0.2937418096016095	0.18232493485622958	0.7305090202998303	0.2594065484989276	0.18062955779020579	0.7456184914489715
